# xmcd
#
# Track frame offsets:
#	150
#	10545
#	30950
#	46260
#	56930
#	68032
#	78842
#	89132
#	99715
#	111165
#	127730
#	137952
#	147962
#	158740
#	179807
#	190550
#	200990
#	222215
#	232535
#	243282
#
# Disc length: 3385 seconds
#
# Revision: 1
# Processed by: cddbd v1.5.1PL0 Copyright (c) Steve Scherf et al.
# Submitted via: CDex 1.50Beta5
#
DISCID=100d3714
DTITLE=Various Musician - Nhk みんなのうた ボクのおとうとくん
DYEAR=1997
DGENRE=Music
TTITLE0=小堺一機/ボクのおとうとくん
TTITLE1=児玉国弘/Wa になっておどろう ~イレ アイエ~
TTITLE2=こっつん and Shery/ブギ・ウギ・ゴリラ
TTITLE3=ボニージャックス/元気のでる歌
TTITLE4=馮智英/風色のとんぼ
TTITLE5=石川ひとみ/ともだち みつけた
TTITLE6=蒲原史子/小さな木の実
TTITLE7=みなみらんぼう/ピアノ
TTITLE8=森 みゆき、ひばり児童合唱団/いろはまつり
TTITLE9=田川寿美/花かんざし
TTITLE10=古北 まなみ/Let's Be Friends ~友達になろうよ~
TTITLE11=山野さと子/おはようクレヨン
TTITLE12=木村真紀/おばけといっしょ
TTITLE13=JADOES/ぼくのクラスは最先端
TTITLE14=中尾 隆聖、ボイスランドキッズ/ペンギン パラダイス
TTITLE15=Kuko/メトロポリタン美術館
TTITLE16=やまさわ 文桜/秋色のプロムナード
TTITLE17=大倉 正丈、コロムビアゆりかご会/北風小僧の寒太郎
TTITLE18=石田よう子/おひるねのゆりかご
TTITLE19=東京放送児童合唱団/川はだれのもの？
EXTD=
EXTT0=
EXTT1=
EXTT2=
EXTT3=
EXTT4=
EXTT5=
EXTT6=
EXTT7=
EXTT8=
EXTT9=
EXTT10=
EXTT11=
EXTT12=
EXTT13=
EXTT14=
EXTT15=
EXTT16=
EXTT17=
EXTT18=
EXTT19=
PLAYORDER=
